<svg id="_0186_marketing_2" xmlns="http://www.w3.org/2000/svg" viewBox="0 0 500 500" data-imageid="marketing-2-70" imageName="Marketing 2" class="illustrations_image" style="width: 144px;"><defs><style>.cls-1_marketing-2-70,.cls-2_marketing-2-70{fill:#fff;}.cls-3_marketing-2-70{opacity:.24;}.cls-3_marketing-2-70,.cls-4_marketing-2-70{fill:#e6e6e6;}.cls-5_marketing-2-70{fill:#a5a5a5;}.cls-2_marketing-2-70{opacity:.56;}.cls-6_marketing-2-70{opacity:.12;}.cls-6_marketing-2-70,.cls-7_marketing-2-70{fill:#000001;}.cls-7_marketing-2-70{opacity:.05;}.cls-8_marketing-2-70{fill:#24285b;}.cls-9_marketing-2-70{fill:#ffd200;}.cls-10_marketing-2-70{fill:#68e1fd;}</style></defs><ellipse id="sd_marketing-2-70" class="cls-3_marketing-2-70" cx="250" cy="242.29" rx="221.7" ry="191.23"/><g id="phone_marketing-2-70"><polygon class="cls-4_marketing-2-70" points="416.83 115.88 390.31 133.77 247.03 61.19 116.87 318.17 73.21 347.61 83.46 384.12 263.52 475.32 427.08 152.39 416.83 115.88"/><rect class="cls-5_marketing-2-70" x="144.11" y="50.75" width="201.84" height="361.99" transform="translate(131.15 -85.71) rotate(26.86)"/><rect class="cls-1_marketing-2-70" x="166.46" y="93.04" width="167.06" height="254.75" transform="translate(126.57 -89.17) rotate(26.86)"/><circle class="cls-2_marketing-2-70" cx="178.85" cy="363.74" r="19.75"/><rect class="cls-6_marketing-2-70" x="300.26" y="87.53" width="56.59" height="8.25" transform="translate(76.87 -138.57) rotate(26.86)"/><circle class="cls-1_marketing-2-70" cx="284.62" cy="70.41" r="9.22"/><polygon class="cls-7_marketing-2-70" points="184.44 164.97 375.34 157.79 313.06 281.65 127.44 277.49 184.44 164.97"/></g><g id="video_marketing-2-70"><rect class="cls-8_marketing-2-70" x="324.96" y="137.28" width="91.25" height="69.85" transform="translate(114.5 -146.24) rotate(26.27)"/><rect class="cls-9_marketing-2-70" x="349.36" y="157.17" width="42.44" height="30.07" transform="translate(114.5 -146.24) rotate(26.27)"/><polygon class="cls-1_marketing-2-70" points="368.34 161.63 361.46 175.58 380.19 175.86 368.34 161.63"/></g><g id="like_marketing-2-70"><rect class="cls-8_marketing-2-70" x="99.54" y="172.51" width="101.75" height="77.89" transform="translate(109.13 -44.74) rotate(26.27)"/><path class="cls-1_marketing-2-70" d="m145.88,203.88s13.04,6.95,21.27-2.39c2.14-2.43,6.22-1.5,6.95,1.65.43,1.86.08,4.23-2.02,7.17-6.1,8.53-1.9,5.98,2.08,11.52,3.98,5.53-13.36,17.21-21.46,12.37-8.1-4.84-3.78-12.66-14.64-14.46l7.83-15.86Z"/><rect class="cls-9_marketing-2-70" x="124.97" y="196.57" width="21.94" height="23.71" transform="translate(106.29 -38.64) rotate(26.27)"/></g><g id="mail_marketing-2-70"><rect class="cls-8_marketing-2-70" x="158.35" y="55.59" width="95.98" height="73.47" transform="translate(62.18 -81.8) rotate(26.27)"/><rect class="cls-1_marketing-2-70" x="186.26" y="77.43" width="40.18" height="29.79" transform="translate(62.18 -81.8) rotate(26.27)"/><polygon class="cls-10_marketing-2-70 targetColor" points="194.92 70.07 203.36 98.38 230.95 87.86 194.92 70.07" style="fill: rgb(104, 225, 253);"/></g><g id="love_marketing-2-70"><rect class="cls-8_marketing-2-70" x="261.76" y="272.89" width="98.63" height="75.5" transform="translate(169.62 -105.6) rotate(26.27)"/><path class="cls-10_marketing-2-70 targetColor" d="m326.63,299.59c-1.96-.97-4.06-1.23-6.25-.79-2.1.42-3.85,1.42-4.98,2.22-.06-1.38-.33-3.38-1.27-5.3-.98-2.01-2.47-3.52-4.43-4.48-5.47-2.7-11.8-.26-14.73,5.67-3.16,6.41-.18,13.34,4.33,23.82.77,1.78,1.64,3.8,2.52,5.93.12.28.33.51.61.65s.59.17.88.09c2.23-.59,4.36-1.13,6.24-1.61,11.07-2.79,18.38-4.64,21.54-11.05,2.93-5.93,1.01-12.45-4.46-15.15Z" style="fill: rgb(104, 225, 253);"/></g></svg>